<svg width="33" height="25" viewBox="0 0 33 25" fill="none" xmlns="http://www.w3.org/2000/svg">
    <path d="M6.37144 10.3066L0.693771 23.8457C0.426064 24.4841 1.04053 25.1381 1.69435 24.9107L11.2931 21.572C11.425 21.5261 11.5317 21.4272 11.5874 21.2991L16.196 10.6994C16.3395 10.3691 16.0975 10 15.7374 10H6.83254C6.6311 10 6.44934 10.1209 6.37144 10.3066Z" fill="#0C0A1F"/>
    <path d="M22.1328 0.294446L32.7354 23.8045C33.0241 24.4447 32.4067 25.1197 31.7433 24.889L22.3892 21.6354C22.1399 21.5487 21.935 21.3669 21.8192 21.1297L11.8514 0.719418C11.6892 0.38726 11.931 0 12.3007 0H21.677C21.8736 0 22.052 0.115221 22.1328 0.294446Z" fill="#0C0A1F"/>
</svg>
